<svg xmlns="http://www.w3.org/2000/svg" xmlns:xlink="http://www.w3.org/1999/xlink" width="273.457" height="282.088" viewBox="0 0 273.457 282.088">
  <defs>
    <clipPath id="clip-path">
      <path id="Path_6282" data-name="Path 6282" d="M1580.115,401.351a76.744,76.744,0,0,1-16.506-13.157,13.372,13.372,0,0,1-3.748-5.432,7.1,7.1,0,0,1,1.325-6.412,6.746,6.746,0,0,1,6.094-2.314c2.15.34,3.966,1.723,5.682,3.061l16.118,12.572Z" transform="translate(-1559.593 -373.96)" fill="none"/>
    </clipPath>
    <clipPath id="clip-path-2">
      <path id="Path_6312" data-name="Path 6312" d="M1096.967,490.5l-50.817-49.231a4.072,4.072,0,0,1-1.018-4.272,19.227,19.227,0,0,0-2.3-5.391l-11.709-11.341a2.237,2.237,0,0,1-.051-3.15,2.212,2.212,0,0,1,2.278-.568,2.269,2.269,0,0,1,.869.528l11.656,11.289a47.618,47.618,0,0,0,7.1,2.59.643.643,0,0,1,.141.034,3.976,3.976,0,0,1,1.987,1.044l50.817,49.231a4.092,4.092,0,0,1,.091,5.794l-3.239,3.342A4.1,4.1,0,0,1,1096.967,490.5Z" transform="translate(-1030.445 -416.434)" fill="none"/>
    </clipPath>
    <clipPath id="clip-path-3">
      <path id="Path_6314" data-name="Path 6314" d="M1356.863,286.539h0a6.141,6.141,0,0,1,3.569-7.917l12.908-4.887a6.14,6.14,0,0,1,7.916,3.568h0a6.139,6.139,0,0,1-3.568,7.916l-12.907,4.887A6.141,6.141,0,0,1,1356.863,286.539Z" transform="translate(-1356.463 -273.336)" fill="none"/>
    </clipPath>
  </defs>
  <g id="Group_11660" data-name="Group 11660" transform="translate(-1030.445 -269.532)">
    <g id="Group_11642" data-name="Group 11642" transform="translate(1206.932 362.373)">
      <path id="Path_6269" data-name="Path 6269" d="M1470.647,711.472c.154-18.2.379-36.82,6.591-53.931,1-2.755,2.212-5.544,4.365-7.532s5.473-2.979,8.092-1.662c3.621,1.821,4.155,6.734,3.8,10.773C1491.765,679.05,1480.541,696.721,1470.647,711.472Z" transform="translate(-1463.157 -581.259)" fill="#fff"/>
      <path id="Path_6270" data-name="Path 6270" d="M1469.636,756.1c9.763-3.9,17.843-10.976,26.08-17.508s17.218-12.8,27.58-14.572c3.1-.53,6.954-.289,8.475,2.465a5.8,5.8,0,0,1-.414,5.635,16.328,16.328,0,0,1-4.115,4.2c-8.362,6.633-17.251,12.749-27.1,16.849S1479.363,759.277,1469.636,756.1Z" transform="translate(-1462.569 -625.523)" fill="#fff"/>
      <path id="Path_6271" data-name="Path 6271" d="M1551.3,625.811q2.643-23.287,5.284-46.574c.222-1.958.687-4.26,2.5-5.043a3.787,3.787,0,0,1,4.312,1.489,9.385,9.385,0,0,1,1.461,4.641c.882,8.057-.682,16.231-3.395,23.868S1554.908,619.008,1551.3,625.811Z" transform="translate(-1510.104 -538.313)" fill="#fff"/>
      <path id="Path_6272" data-name="Path 6272" d="M1551.727,656.394c9.441-9.147,18.945-18.344,29.843-25.694,1.8-1.215,3.75-2.415,5.92-2.52s4.567,1.3,4.785,3.463c.183,1.806-1.125,3.392-2.394,4.69A69.826,69.826,0,0,1,1551.727,656.394Z" transform="translate(-1510.351 -569.866)" fill="#fff"/>
      <path id="Path_6273" data-name="Path 6273" d="M1605.821,530.53c2.027-12.587-5.925-25.257-3.653-37.8.285-1.574.913-3.331,2.408-3.9a3.445,3.445,0,0,1,3.547,1.006,8.385,8.385,0,0,1,1.788,3.43C1613.626,505.1,1610.252,517.858,1605.821,530.53Z" transform="translate(-1539.471 -488.659)" fill="#fff"/>
      <path id="Path_6274" data-name="Path 6274" d="M1612.381,547.958l19.789-24.43a14.309,14.309,0,0,1,3.6-3.5,4.852,4.852,0,0,1,4.8-.31,4.624,4.624,0,0,1,2.06,4.023,10,10,0,0,1-1.323,4.5c-2.734,5.294-7.318,9.452-12.392,12.576A72.708,72.708,0,0,1,1612.381,547.958Z" transform="translate(-1545.656 -506.443)" fill="#fff"/>
      <path id="Path_6275" data-name="Path 6275" d="M1452.726,668.837A341.242,341.242,0,0,0,1524.462,560.5" transform="translate(-1452.726 -530.473)" fill="none" stroke="#fff" stroke-miterlimit="10" stroke-width="2.779"/>
    </g>
    <path id="Path_6276" data-name="Path 6276" d="M1172.51,762.859a40.863,40.863,0,0,0,7.716-38.773c-.88-2.66-2.735-5.679-5.529-5.47-1.671.125-3,1.419-4.065,2.711a33.546,33.546,0,0,0-7.383,17.226c-.667-8.544-1.347-17.155-3.688-25.4s-6.489-16.2-13.056-21.7a60.446,60.446,0,0,0-3.779,29.72c-6.206-13.13-12.682-26.63-23.489-36.332-2.812-2.524-7.4-4.693-10.014-1.966-2.012,2.1-1.173,5.519-.146,8.237a189.9,189.9,0,0,0,14.633,30.295,120.191,120.191,0,0,0-19.958-13.366c-3.518-1.877-8.719-3.174-10.8.23-1.837,3.01.712,6.735,3.191,9.244a157.064,157.064,0,0,0,21.722,18.318,17.289,17.289,0,0,0-22.124,3.194,71.031,71.031,0,0,0,32.9,14.367,42.976,42.976,0,0,0-19.1.514c-2.617.674-5.61,2.121-5.873,4.811-.325,3.341,3.672,5.245,6.94,6.014a136.4,136.4,0,0,0,25.354,3.5l-17.455,4.4c-1.689.426-3.54.963-4.479,2.43-1.264,1.976-.138,4.777,1.8,6.092s4.413,1.509,6.758,1.564C1140.925,783.138,1159.755,777.628,1172.51,762.859Z" transform="translate(-36.021 -238.596)" fill="#0daea8"/>
    <g id="Group_11643" data-name="Group 11643" transform="translate(1045.95 391.927)">
      <path id="Path_6277" data-name="Path 6277" d="M1163.7,673.053a28.557,28.557,0,0,1-33.209-5.025c-9.772-10.071-11.573-27.03-23.58-34.292-5-3.023-11.392-4.042-15.148-8.515-4.376-5.21-3.437-12.915-5.358-19.442-3.79-12.872-18.847-21.433-18.858-34.852,0-4.626,2.4-9.589,6.778-11.092,5.254-1.8,10.868,1.958,14.155,6.436s5.365,9.878,9.368,13.731c9.647,9.287,27.072,6.659,35.906,16.722,7.84,8.932,4.953,23.452,11.612,33.3,3.721,5.5,9.875,8.728,15.532,12.2s11.394,7.881,13.223,14.265S1170.778,669.184,1163.7,673.053Z" transform="translate(-1067.543 -559.375)" fill="#20beb8"/>
      <path id="Path_6278" data-name="Path 6278" d="M1173.693,685.343s-40.857-34.059-64.917-69.457l-24.059-35.4" transform="translate(-1077.539 -571.665)" fill="none" stroke="#152639" stroke-miterlimit="10" stroke-width="3.31"/>
    </g>
    <g id="Group_11649" data-name="Group 11649" transform="translate(1194.541 292.605)">
      <path id="Path_6279" data-name="Path 6279" d="M1473.09,393.86c13.388-11.464,31.826-27.166,41.215-42.084,2.976-4.728,5.824-10.033,5.206-15.585-.786-7.055-7.4-12.55-14.429-13.516s-15.264,2.487-20.882,6.825-12.649,12.911-12.649,12.911-11.954-12.684-19.221-17.126-17.507-5.225-23.8.508c-4.664,4.245-6.177,11.18-5.126,17.4s4.322,11.839,8.011,16.954C1442.425,375.424,1457.581,384.464,1473.09,393.86Z" transform="translate(-1423.08 -321.724)" fill="#da4949"/>
      <g id="Group_11648" data-name="Group 11648" transform="translate(57.054 21.831)">
        <g id="Group_11645" data-name="Group 11645">
          <g id="Group_11644" data-name="Group 11644" clip-path="url(#clip-path)">
            <path id="Path_6280" data-name="Path 6280" d="M1581.887,402.433a92.4,92.4,0,0,1-18.279-14.239,13.372,13.372,0,0,1-3.748-5.432,7.1,7.1,0,0,1,1.325-6.412,6.746,6.746,0,0,1,6.094-2.314c2.15.34,3.966,1.723,5.682,3.061l16.118,12.572Z" transform="translate(-1559.593 -373.96)" fill="#f7f3e1"/>
            <path id="Path_6281" data-name="Path 6281" d="M1582.7,379.726a126.159,126.159,0,0,0-14.4,20.264,58.26,58.26,0,0,0,11.446,6.623L1595,388.449A53.208,53.208,0,0,0,1582.7,379.726Z" transform="translate(-1564.66 -377.316)" fill="#ebe3c6"/>
          </g>
        </g>
        <g id="Group_11647" data-name="Group 11647" transform="translate(12.137 8.336)">
          <g id="Group_11646" data-name="Group 11646">
            <path id="Path_6283" data-name="Path 6283" d="M1589.713,407.411a1.105,1.105,0,0,0,0,2.21A1.105,1.105,0,0,0,1589.713,407.411Z" transform="translate(-1588.632 -401.767)" fill="#e4c8a2"/>
            <path id="Path_6284" data-name="Path 6284" d="M1599.36,393.906a1.105,1.105,0,0,0,0,2.21A1.105,1.105,0,0,0,1599.36,393.906Z" transform="translate(-1594.247 -393.906)" fill="#e4c8a2"/>
            <path id="Path_6285" data-name="Path 6285" d="M1600.518,407.411a1.105,1.105,0,0,0,0,2.21A1.105,1.105,0,0,0,1600.518,407.411Z" transform="translate(-1594.921 -401.767)" fill="#e4c8a2"/>
            <path id="Path_6286" data-name="Path 6286" d="M1600.9,419.759a1.105,1.105,0,0,0,0,2.21A1.105,1.105,0,0,0,1600.9,419.759Z" transform="translate(-1595.146 -408.954)" fill="#e4c8a2"/>
            <path id="Path_6287" data-name="Path 6287" d="M1609.779,406.254a1.105,1.105,0,0,0,0,2.21A1.105,1.105,0,0,0,1609.779,406.254Z" transform="translate(-1600.311 -401.093)" fill="#e4c8a2"/>
          </g>
        </g>
      </g>
      <path id="Path_6288" data-name="Path 6288" d="M1443.562,332.377a9.888,9.888,0,0,0-8.45,6.237Z" transform="translate(-1430.083 -327.925)" fill="#df6565"/>
    </g>
    <g id="Group_11652" data-name="Group 11652" transform="translate(1073.738 271.696)">
      <path id="Path_6289" data-name="Path 6289" d="M1221.82,272.754a32.9,32.9,0,0,0-11.693-.873c-1.4.155-3,.618-3.247,2.021-.24,1.383,1.125,2.906,2.549,3.333a6.516,6.516,0,0,0,4.1-.4A45.441,45.441,0,0,0,1221.82,272.754Z" transform="translate(-1176.418 -271.696)" fill="#152639" stroke="#152639" stroke-miterlimit="10" stroke-width="4.319"/>
      <path id="Path_6290" data-name="Path 6290" d="M1167.78,283.951a25.927,25.927,0,0,1,4.407-4.264,9.445,9.445,0,0,1,5.875-1.872c1.2.067,2.584.586,2.994,1.714a2.209,2.209,0,0,1-.4,2.07,4.917,4.917,0,0,1-1.735,1.294A16.34,16.34,0,0,1,1167.78,283.951Z" transform="translate(-1153.676 -275.251)" fill="#152639" stroke="#152639" stroke-miterlimit="10" stroke-width="3.615"/>
      <path id="Path_6291" data-name="Path 6291" d="M1148.755,281.015c-25.635,17.294-12.849,48.855,1.185,68.435,7.454,15.332,24.022,22.251,42.445,16.066,16.58-6.34,29.155-23.3,24.033-40.942-6.738-19.447-7.917-56.361-36.983-51.063" transform="translate(-1134.032 -272.453)" fill="none" stroke="#152639" stroke-miterlimit="10" stroke-width="3.615"/>
      <path id="Path_6292" data-name="Path 6292" d="M1240.03,496.806c4.879,16.1,9.69,33.85,2.979,49.278-4.489,10.321-13.61,18.075-18.148,28.375a36.18,36.18,0,1,0,69.064,18.6c.413-3.7.21-7.619-1.595-10.877s-5.517-5.656-9.188-5.031c-4.013.683-6.838,4.932-6.587,9s3.1,7.672,6.7,9.578a21.217,21.217,0,0,0,11.886,1.922c9.327-.866,17.83-5.5,25.989-10.1s16.551-9.37,25.843-10.552,19.831,2.141,24.336,10.354" transform="translate(-1185.191 -402.724)" fill="none" stroke="#152639" stroke-miterlimit="10" stroke-width="3.615"/>
      <path id="Path_6293" data-name="Path 6293" d="M1560.1,704.835c28.726-21.8,58.12,25.851,28.35,42.215C1566.034,759.375,1536.471,727.772,1560.1,704.835Z" transform="translate(-1376.966 -520.546)" fill="#152639"/>
      <path id="Path_6294" data-name="Path 6294" d="M1575,721.116c20.277-15.388,41.025,18.248,20.012,29.8C1579.189,759.614,1558.321,737.307,1575,721.116Z" transform="translate(-1387.128 -530.983)" fill="#fff"/>
      <path id="Path_6295" data-name="Path 6295" d="M1586.035,733.171c14.021-10.641,28.368,12.618,13.838,20.605C1588.929,759.792,1574.5,744.367,1586.035,733.171Z" transform="translate(-1394.653 -538.711)" fill="#20beb8"/>
      <g id="Group_11651" data-name="Group 11651" transform="translate(13.202 49.416)">
        <g id="Group_11650" data-name="Group 11650">
          <path id="Path_6296" data-name="Path 6296" d="M1197.7,438.5a43.783,43.783,0,0,0,13.932-2.359l.1-.038a44.64,44.64,0,0,0,21.475-17.315,32.755,32.755,0,0,0,4.189-26.907,2.7,2.7,0,1,0-5.193,1.508c4.933,16.989-7.826,32.063-22.351,37.642-16.7,5.582-32.041-.185-39.1-14.7a2.7,2.7,0,0,0-4.864,2.365A34.486,34.486,0,0,0,1197.7,438.5Z" transform="translate(-1165.62 -389.934)" fill="#008782"/>
        </g>
      </g>
    </g>
    <g id="Group_11653" data-name="Group 11653" transform="translate(1103.894 366.942)">
      <path id="Path_6297" data-name="Path 6297" d="M1480.356,518.942l2.569,13.231-5.793.971S1474.146,523.914,1480.356,518.942Z" transform="translate(-1363.477 -510.855)" fill="#0a827e"/>
      <path id="Path_6298" data-name="Path 6298" d="M1350.529,536.493a51.645,51.645,0,0,1,5.62,9.712Q1333,617.977,1315.013,691.57l-9.384,5.629s-92.382-19.433-92.507-19.575l-6.934-6.7s44.7-142.953,45.17-143.57l5.16-5.549Z" transform="translate(-1206.188 -512.519)" fill="#1a2942"/>
      <path id="Path_6299" data-name="Path 6299" d="M1359.945,553.266l-89.813-15.358-40.494,139.053,90.4,19.646Z" transform="translate(-1219.837 -521.894)" fill="#fff"/>
      <path id="Path_6300" data-name="Path 6300" d="M1429.354,511.292a22.542,22.542,0,0,0-3.223,14.2s-36.484-4.905-36.992-5.392a14.914,14.914,0,0,1,4.689-14.3Z" transform="translate(-1312.475 -503.205)" fill="#0daea8"/>
      <path id="Path_6301" data-name="Path 6301" d="M1434.092,506.925a11.53,11.53,0,0,0-7.407-7.078c-3.429-.9-7.523.606-9.023,3.817Z" transform="translate(-1329.279 -499.591)" fill="#0a827e"/>
      <path id="Path_6302" data-name="Path 6302" d="M1406.145,591.383a7.782,7.782,0,0,1-11.76-4.333c.595.9-.726,2.019-1.79,1.814s-1.859-1.069-2.815-1.577a4.633,4.633,0,0,0-5.731,1.328,5.9,5.9,0,0,0-8.347-3.075,1.13,1.13,0,0,0,1.08,1.087,9.649,9.649,0,0,0-11.03-4.292c-1.868-2.256-5.083-2.732-7.994-3.051l-10.074-1.105" transform="translate(-1288.547 -545.334)" fill="none" stroke="#21d1ca" stroke-miterlimit="10" stroke-width="3.492"/>
      <path id="Path_6303" data-name="Path 6303" d="M1398.71,624.513c-2.259.75-4.844,1.475-6.915.3a8.98,8.98,0,0,0-1.886-1.076c-1.3-.361-2.586.513-3.854.988a6.94,6.94,0,0,1-8.026-2.673,9.628,9.628,0,0,0-1.539-2.264,2.921,2.921,0,0,0-4.247.714,1.006,1.006,0,0,0-.1,1.012c.192.3.782.259.8-.1a8.585,8.585,0,0,0-9.686-1.454c-2.08-1.911-4.647-3.966-7.406-3.361-1.549.34-2.947,1.51-4.521,1.317s-3.491-1.59-4.427-.311" transform="translate(-1288.095 -567.639)" fill="none" stroke="#21d1ca" stroke-miterlimit="10" stroke-width="3.492"/>
      <path id="Path_6304" data-name="Path 6304" d="M1289.085,821.43a39.954,39.954,0,0,1-5.161-2.861,1.9,1.9,0,0,1-.953-1.085c-.1-.486.438-1.057.86-.8-.877,1.775-3.253,2.358-5.16,1.825a12.943,12.943,0,0,1-4.919-3.228c-.427.7-.058,1.654-.4,2.4-.558,1.2-2.409.92-3.439.084s-1.859-2.06-3.156-2.333a7.512,7.512,0,0,0-2.109.066,7.243,7.243,0,0,1-5.908-2.423" transform="translate(-1236.775 -682.057)" fill="none" stroke="#21d1ca" stroke-miterlimit="10" stroke-width="3.492"/>
      <path id="Path_6305" data-name="Path 6305" d="M1291.433,839.1c-2.491-.457-5.121-.98-7-2.675a2.857,2.857,0,0,0-.94-.677c-1.532-.511-2.432,2.1-4.039,2.263-1.84.191-2.8-2.863-4.639-2.635a12.326,12.326,0,0,0-1.746.721,2.014,2.014,0,0,1-2.444-1.594,10.392,10.392,0,0,1-4.252-.53" transform="translate(-1241.219 -694.221)" fill="none" stroke="#21d1ca" stroke-miterlimit="10" stroke-width="3.492"/>
      <path id="Path_6306" data-name="Path 6306" d="M1285.909,853.36l-4.649-1.622a2.977,2.977,0,0,0-1.445-.246c-.945.16-1.609,1.2-2.568,1.2-1.512.008-2.118-2.459-3.63-2.444a3.4,3.4,0,0,0-1.26.415,5.054,5.054,0,0,1-3.9.016" transform="translate(-1242.433 -703.699)" fill="none" stroke="#21d1ca" stroke-miterlimit="10" stroke-width="3.492"/>
      <path id="Path_6307" data-name="Path 6307" d="M1360.59,655.181l-15.639,60.759-64.87-12,18.03-60.126Z" transform="translate(-1249.199 -583.536)" fill="#ede5c8"/>
    </g>
    <path id="Path_6308" data-name="Path 6308" d="M1363.284,464.68l-6.666-1.952,1.953,6.666-1.953,6.666,6.666-1.952,6.666,1.952L1368,469.394l1.952-6.666Z" transform="translate(-189.854 -111.193)" fill="#fff"/>
    <g id="Group_11654" data-name="Group 11654" transform="translate(1173.215 329.991)">
      <rect id="Rectangle_4885" data-name="Rectangle 4885" width="1.041" height="11.454" transform="translate(4.644 11.32) rotate(-164.628)" fill="#fff"/>
      <rect id="Rectangle_4886" data-name="Rectangle 4886" width="1.041" height="11.454" transform="translate(11.32 6.676) rotate(105.371)" fill="#fff"/>
    </g>
    <path id="Path_6309" data-name="Path 6309" d="M1313.7,511.1l3.558-.714-.713-3.558,1.209-.242.713,3.558,3.559-.713.242,1.209-3.558.713.714,3.558-1.209.242-.713-3.558-3.558.713Z" transform="translate(-164.87 -136.721)" fill="#fff"/>
    <g id="Group_11657" data-name="Group 11657" transform="translate(1030.445 332.188)">
      <g id="Group_11656" data-name="Group 11656" transform="translate(0)">
        <g id="Group_11655" data-name="Group 11655" clip-path="url(#clip-path-2)">
          <path id="Path_6310" data-name="Path 6310" d="M1096.967,490.5l-50.817-49.231a4.072,4.072,0,0,1-1.018-4.272,19.227,19.227,0,0,0-2.3-5.391l-11.709-11.341a2.237,2.237,0,0,1-.051-3.15,2.212,2.212,0,0,1,2.278-.568,2.269,2.269,0,0,1,.869.528l11.656,11.289a47.618,47.618,0,0,0,7.1,2.59.643.643,0,0,1,.141.034,3.976,3.976,0,0,1,1.987,1.044l50.817,49.231a4.092,4.092,0,0,1,.091,5.794l-3.239,3.342A4.1,4.1,0,0,1,1096.967,490.5Z" transform="translate(-1030.445 -416.434)" fill="#f7f3e1"/>
          <path id="Path_6311" data-name="Path 6311" d="M1028.615,411.064a60.034,60.034,0,0,1-10.772,9.92,13.186,13.186,0,0,1-5.176-4.23,6.291,6.291,0,0,1-.507-6.4,7.575,7.575,0,0,1,3.461-2.866,12.468,12.468,0,0,1,8.306-1.057C1026.687,407.128,1029.878,409.577,1028.615,411.064Z" transform="translate(-1019.417 -410.428)" fill="#7295b8"/>
        </g>
      </g>
      <rect id="Rectangle_4887" data-name="Rectangle 4887" width="15.017" height="6.119" rx="1.787" transform="matrix(0.699, 0.715, -0.715, 0.699, 61.693, 55.787)" fill="#0b837f"/>
      <line id="Line_9" data-name="Line 9" x2="30.753" y2="30.72" transform="translate(24.637 21.347)" fill="none" stroke="#ebe3c6" stroke-miterlimit="10" stroke-width="2.66"/>
      <line id="Line_10" data-name="Line 10" x2="30.753" y2="30.72" transform="translate(22.651 23.842)" fill="none" stroke="#ebe3c6" stroke-miterlimit="10" stroke-width="2.66"/>
    </g>
    <g id="Group_11659" data-name="Group 11659" transform="translate(1166.7 272.382)">
      <g id="Group_11658" data-name="Group 11658" transform="translate(0 0)" clip-path="url(#clip-path-3)">
        <rect id="Rectangle_4888" data-name="Rectangle 4888" width="26.082" height="12.28" rx="6.14" transform="translate(-1.775 7.46) rotate(-20.737)" fill="#f7e9e9"/>
        <path id="Path_6313" data-name="Path 6313" d="M1361.293,277.7a9.333,9.333,0,0,1,6.168,5.957,20.16,20.16,0,0,1,.83,8.81c-3.116,1.067-6.314,2.148-9.606,2.063s-6.752-1.579-8.267-4.5a8.327,8.327,0,0,1,1.593-9.205A9.764,9.764,0,0,1,1361.293,277.7Z" transform="translate(-1352.497 -275.74)" fill="#da4949"/>
      </g>
    </g>
  </g>
</svg>
